<svg width="20" height="20" viewBox="0 0 20 20" fill="none" xmlns="http://www.w3.org/2000/svg">
<path fill-rule="evenodd" clip-rule="evenodd" d="M2 1C2 0.447716 2.44772 0 3 0C3.55228 0 4 0.447715 4 1L4 4.17071C5.16519 4.58254 6 5.69378 6 7C6 7.8885 5.61375 8.68679 5 9.23611C4 10.1311 4 12 4 12L4 19C4 19.5523 3.55228 20 3 20C2.44772 20 2 19.5523 2 19L2 12C2 12 2 10.1311 1 9.23611C0.386251 8.68679 0 7.8885 0 7C0 5.69378 0.834808 4.58254 2 4.17071L2 1ZM3 6C2.44772 6 2 6.44772 2 7C2 7.55228 2.44772 8 3 8C3.55228 8 4 7.55228 4 7C4 6.44772 3.55228 6 3 6Z" fill="#2487FF"/>
<path fill-rule="evenodd" clip-rule="evenodd" d="M9 1C9 0.447716 9.44772 0 10 0C10.5523 0 11 0.447715 11 1L11 8C11 8 11 9.86887 12 10.7639C12.6137 11.3132 13 12.1115 13 13C13 14.3062 12.1652 15.4175 11 15.8293V19C11 19.5523 10.5523 20 10 20C9.44772 20 9 19.5523 9 19V15.8293C7.83481 15.4175 7 14.3062 7 13C7 12.1115 7.38625 11.3132 8 10.7639C8.99016 9.87768 8.9999 8.0367 9 8.00054V1ZM9 13C9 12.4477 9.44771 12 10 12C10.5523 12 11 12.4477 11 13C11 13.5523 10.5523 14 10 14C9.44771 14 9 13.5523 9 13Z" fill="#2487FF"/>
<path fill-rule="evenodd" clip-rule="evenodd" d="M17 0C16.4477 0 16 0.447716 16 1V4.17071C14.8348 4.58254 14 5.69378 14 7C14 7.8885 14.3863 8.68679 15 9.23611C16 10.1311 16 12 16 12L16 19C16 19.5523 16.4477 20 17 20C17.5523 20 18 19.5523 18 19V12C18 12 18 10.1311 19 9.23611C19.6137 8.68679 20 7.8885 20 7C20 5.69378 19.1652 4.58254 18 4.17071V1C18 0.447715 17.5523 0 17 0ZM17 6C16.4477 6 16 6.44772 16 7C16 7.55228 16.4477 8 17 8C17.5523 8 18 7.55228 18 7C18 6.44772 17.5523 6 17 6Z" fill="#2487FF"/>
</svg>
