<svg width="20" height="11" viewBox="0 0 20 11" fill="none" xmlns="http://www.w3.org/2000/svg">
<path d="M19.7002 1.04555C19.9992 1.2441 20.0807 1.6475 19.8822 1.94658C19.3822 2.69973 18.7405 3.51913 17.9686 4.30454L19.8043 6.14019C20.0581 6.39403 20.0581 6.80559 19.8043 7.05943C19.5505 7.31327 19.1389 7.31327 18.8851 7.05943L17.0181 5.19246C16.0828 5.99208 15.0026 6.70785 13.7916 7.21544L14.826 9.70422C14.9637 10.0357 14.8067 10.4161 14.4752 10.5539C14.1437 10.6917 13.7633 10.5346 13.6255 10.2031L12.5613 7.64252C11.7552 7.86541 10.9002 7.99185 9.9999 7.99185C9.0836 7.99185 8.22855 7.86879 7.43355 7.65444L6.3743 10.2031C6.23653 10.5346 5.85611 10.6917 5.52461 10.5539C5.19312 10.4161 5.03607 10.0357 5.17385 9.70422L6.20071 7.23346C4.95666 6.71668 3.88486 5.98483 2.97946 5.19472L1.11475 7.05943C0.860905 7.31327 0.449348 7.31327 0.195508 7.05943C-0.0583332 6.80559 -0.0583332 6.39403 0.195508 6.14019L2.03833 4.29737C1.23183 3.46068 0.599785 2.62401 0.13578 1.95904C-0.0696448 1.66464 0.00248271 1.25945 0.296882 1.05403C0.591281 0.8486 0.996468 0.920728 1.20189 1.21513C2.66506 3.31202 5.54129 6.69185 9.9999 6.69185C14.0334 6.69185 17.149 3.71326 18.7991 1.22758C18.9977 0.9285 19.4011 0.847001 19.7002 1.04555Z" fill="#7B7E86"/>
</svg>
