<svg width="42" height="42" viewBox="0 0 42 42" fill="none" xmlns="http://www.w3.org/2000/svg">
    <path d="M22.9091 13.3636C22.9091 12.3093 22.0544 11.4545 21 11.4545C19.9456 11.4545 19.0909 12.3093 19.0909 13.3636L19.0909 19.0909L13.3636 19.0909C12.3093 19.0909 11.4545 19.9456 11.4545 21C11.4545 22.0544 12.3093 22.9091 13.3636 22.9091L19.0909 22.9091V28.6364C19.0909 29.6907 19.9456 30.5455 21 30.5455C22.0544 30.5455 22.9091 29.6907 22.9091 28.6364V22.9091H28.6364C29.6907 22.9091 30.5455 22.0544 30.5455 21C30.5455 19.9456 29.6907 19.0909 28.6364 19.0909H22.9091L22.9091 13.3636Z" fill="#006AEF"/>
    <path fill-rule="evenodd" clip-rule="evenodd" d="M21 0C9.40202 1.38305e-07 -1.38305e-07 9.40202 0 21C1.38305e-07 32.598 9.40202 42 21 42C32.598 42 42 32.598 42 21C42 9.40202 32.598 -1.38305e-07 21 0ZM3.81818 21C3.81818 11.5107 11.5107 3.81818 21 3.81818C30.4893 3.81818 38.1818 11.5107 38.1818 21C38.1818 30.4893 30.4893 38.1818 21 38.1818C11.5107 38.1818 3.81818 30.4893 3.81818 21Z" fill="#006AEF"/>
</svg>