<svg width="10" height="8" viewBox="0 0 10 8" fill="none" xmlns="http://www.w3.org/2000/svg">
<path d="M6.51198 6.67824C6.39198 6.67824 6.27865 6.63157 6.19198 6.53824C6.03198 6.35824 6.04532 6.0849 6.21865 5.9249L8.14609 4.11159H2.767C1.90175 4.11159 1.20033 4.81301 1.20033 5.67825V6.8647C1.20033 7.10402 1.00632 7.29803 0.766999 7.29803C0.527676 7.29803 0.333665 7.10402 0.333665 6.8647V5.67825C0.333665 4.33436 1.42311 3.24492 2.767 3.24492H8.15242L8.15237 3.23458L6.24533 1.62492C6.06533 1.46492 6.05866 1.19159 6.21866 1.01159C6.37866 0.838252 6.652 0.824919 6.832 0.984919L9.51199 3.32125C9.71866 3.50792 9.71866 3.82792 9.51199 4.01458L6.80532 6.5649C6.71865 6.6449 6.61865 6.67824 6.51198 6.67824Z" fill="#2487FF"/>
</svg>
