<svg width="18" height="18" viewBox="0 0 18 18" fill="none" xmlns="http://www.w3.org/2000/svg">
<path fill-rule="evenodd" clip-rule="evenodd" d="M13.0001 8.99995C13.0001 11.2091 11.2092 13 9.00009 13C6.79095 13 5.00009 11.2091 5.00009 8.99995C5.00009 6.79081 6.79095 4.99995 9.00009 4.99995C11.2092 4.99995 13.0001 6.79081 13.0001 8.99995ZM11.7001 8.99995C11.7001 10.4911 10.4913 11.7 9.00009 11.7C7.50892 11.7 6.30009 10.4911 6.30009 8.99995C6.30009 7.50878 7.50892 6.29995 9.00009 6.29995C10.4913 6.29995 11.7001 7.50878 11.7001 8.99995Z" fill="#7B7E86"/>
<path fill-rule="evenodd" clip-rule="evenodd" d="M7.98315 0.00488281C7.09743 0.00488281 6.34736 0.658034 6.22559 1.53534C6.07458 2.62334 4.93986 3.27847 3.92212 2.86525C3.10146 2.53205 2.16078 2.85506 1.71793 3.62211L0.761191 5.27922C0.323707 6.03697 0.503885 7.00051 1.18562 7.54896C2.06722 8.25821 2.05272 9.62599 1.14762 10.3306C0.448735 10.8748 0.258123 11.8509 0.700981 12.618L1.65772 14.2751C2.0952 15.0328 3.01974 15.3585 3.83558 15.0424C4.89061 14.6335 6.06789 15.33 6.22559 16.4661C6.34736 17.3434 7.09743 17.9966 7.98315 17.9966H9.89662C10.7716 17.9966 11.5159 17.3588 11.6501 16.4942C11.8324 15.3184 13.0551 14.6124 14.1646 15.0424C14.9804 15.3586 15.905 15.0328 16.3425 14.2751L17.2992 12.618C17.7421 11.8509 17.5514 10.8748 16.8526 10.3306C15.9475 9.62599 15.933 8.25821 16.8146 7.54896C17.4963 7.00051 17.6765 6.03697 17.239 5.27922L16.2823 3.62211C15.8394 2.85506 14.8987 2.53205 14.0781 2.86525C13.0153 3.29676 11.8235 2.62543 11.6501 1.50732C11.5159 0.642692 10.7716 0.00488281 9.89662 0.00488281H7.98315ZM7.51325 1.71406C7.5458 1.47951 7.74634 1.30488 7.98315 1.30488L9.89662 1.30488C10.1306 1.30488 10.3296 1.47541 10.3654 1.70657C10.6698 3.66882 12.7417 4.8109 14.5671 4.06975C14.7865 3.98067 15.038 4.06703 15.1564 4.27211L16.1132 5.92922C16.2301 6.13181 16.182 6.38942 15.9997 6.53606C14.4525 7.78076 14.4994 10.1461 16.054 11.3564C16.2408 11.5019 16.2918 11.7629 16.1734 11.968L15.2166 13.6251C15.0997 13.8277 14.8525 13.9148 14.6344 13.8302C12.7508 13.1003 10.675 14.2987 10.3654 16.2949C10.3296 16.5261 10.1305 16.6966 9.89662 16.6966H7.98315C7.74634 16.6966 7.5458 16.522 7.51325 16.2874C7.24239 14.336 5.21735 13.1127 3.36582 13.8302C3.1477 13.9148 2.90052 13.8277 2.78355 13.6251L1.82681 11.968C1.70841 11.7629 1.75937 11.5019 1.94623 11.3564C3.50078 10.1461 3.54768 7.78076 2.0005 6.53606C1.81823 6.38942 1.77006 6.13181 1.88702 5.92922L2.84376 4.27211C2.96216 4.06703 3.21366 3.98067 3.43307 4.06975C5.23581 4.80169 7.24576 3.64126 7.51325 1.71406Z" fill="#7B7E86"/>
</svg>
